<svg width="26" height="26" viewBox="0 0 26 26" fill="none" xmlns="http://www.w3.org/2000/svg">
<g clip-path="url(#clip0_29_1129)">
<path d="M6.03573 10.8574C8.85632 10.8574 11.1429 8.5708 11.1429 5.75021C11.1429 2.92962 8.85632 0.643066 6.03573 0.643066C3.21514 0.643066 0.928589 2.92962 0.928589 5.75021C0.928589 8.5708 3.21514 10.8574 6.03573 10.8574Z" fill="#ADADAD" stroke="#ADADAD" stroke-linecap="round" stroke-linejoin="round"/>
<path d="M20.2501 10.8574C23.0707 10.8574 25.3572 8.5708 25.3572 5.75021C25.3572 2.92962 23.0707 0.643066 20.2501 0.643066C17.4295 0.643066 15.1429 2.92962 15.1429 5.75021C15.1429 8.5708 17.4295 10.8574 20.2501 10.8574Z" fill="#ADADAD" stroke="#ADADAD" stroke-linecap="round" stroke-linejoin="round"/>
<path d="M6.03573 25.0717C8.85632 25.0717 11.1429 22.7852 11.1429 19.9646C11.1429 17.144 8.85632 14.8574 6.03573 14.8574C3.21514 14.8574 0.928589 17.144 0.928589 19.9646C0.928589 22.7852 3.21514 25.0717 6.03573 25.0717Z" fill="#ADADAD" stroke="#ADADAD" stroke-linecap="round" stroke-linejoin="round"/>
<path d="M20.25 25.0717C23.0706 25.0717 25.3571 22.7852 25.3571 19.9646C25.3571 17.144 23.0706 14.8574 20.25 14.8574C17.4294 14.8574 15.1428 17.144 15.1428 19.9646C15.1428 22.7852 17.4294 25.0717 20.25 25.0717Z" fill="#ADADAD" stroke="#ADADAD" stroke-linecap="round" stroke-linejoin="round"/>
</g>
<defs>
<clipPath id="clip0_29_1129">
<rect width="26" height="26" fill="white"/>
</clipPath>
</defs>
</svg>
