<svg width="155" height="155" viewBox="0 0 155 155" fill="none" xmlns="http://www.w3.org/2000/svg">
<circle cx="77.5" cy="77.5" r="75" fill="white" stroke="#212A38" stroke-width="5"/>
<circle cx="77.5" cy="77.5" r="63" fill="#FEAA2B" stroke="#212A38" stroke-width="5" stroke-dasharray="100 8"/>
<path d="M92.489 75.6231C95.8932 73.8799 98.0232 70.8099 97.5256 65.6955C96.8556 58.7061 90.8516 56.3624 83.2725 55.6949L83.271 46H77.3986L77.397 55.4399C75.8519 55.4399 74.2768 55.4705 72.7089 55.5021L72.7077 46.0013L66.8406 46.0007L66.8395 55.6932C65.5679 55.7193 64.3192 55.7442 63.0999 55.7442V55.7155L55 55.7122L55.0011 62.0139C55.0011 62.0139 59.3377 61.9319 59.2663 62.0115C61.644 62.0132 62.4204 63.401 62.6437 64.599L62.6455 75.6435V91.1574C62.5408 91.9093 62.1003 93.1105 60.4377 93.1127C60.5134 93.1797 56.1659 93.112 56.1659 93.112L55.0011 100.159H62.6419C64.0656 100.16 65.4645 100.183 66.8369 100.194L66.842 109.998L72.7077 110L72.706 100.298C74.3198 100.331 75.8775 100.346 77.399 100.344L77.3973 110H83.2695L83.2728 100.212C93.1437 99.6419 100.054 97.1425 100.913 87.825C101.606 80.3234 98.0932 76.9749 92.489 75.6231ZM72.8493 62.4393C76.1612 62.4393 86.5773 61.3792 86.5788 68.3333C86.5773 75.0003 76.1645 74.2215 72.8493 74.2215V62.4393ZM72.8467 93.1605L72.8493 80.1695C76.8285 80.1684 89.3095 79.0186 89.3111 86.6621C89.3128 93.9921 76.8285 93.1576 72.8467 93.1605Z" fill="black"/>
</svg>
