<svg width="26" height="26" viewBox="0 0 26 26" fill="none" xmlns="http://www.w3.org/2000/svg">
<g clip-path="url(#clip0_25_585)">
<path d="M6.0357 11.1428C8.85629 11.1428 11.1428 8.8562 11.1428 6.03561C11.1428 3.21502 8.85629 0.928467 6.0357 0.928467C3.21511 0.928467 0.928558 3.21502 0.928558 6.03561C0.928558 8.8562 3.21511 11.1428 6.0357 11.1428Z" fill="white" stroke="white" stroke-linecap="round" stroke-linejoin="round"/>
<path d="M19.9643 11.1428C22.7849 11.1428 25.0714 8.8562 25.0714 6.03561C25.0714 3.21502 22.7849 0.928467 19.9643 0.928467C17.1437 0.928467 14.8571 3.21502 14.8571 6.03561C14.8571 8.8562 17.1437 11.1428 19.9643 11.1428Z" fill="white" stroke="white" stroke-linecap="round" stroke-linejoin="round"/>
<path d="M6.0357 25.0712C8.85629 25.0712 11.1428 22.7847 11.1428 19.9641C11.1428 17.1435 8.85629 14.8569 6.0357 14.8569C3.21511 14.8569 0.928558 17.1435 0.928558 19.9641C0.928558 22.7847 3.21511 25.0712 6.0357 25.0712Z" fill="white" stroke="white" stroke-linecap="round" stroke-linejoin="round"/>
<path d="M19.9643 25.0712C22.7849 25.0712 25.0714 22.7847 25.0714 19.9641C25.0714 17.1435 22.7849 14.8569 19.9643 14.8569C17.1437 14.8569 14.8571 17.1435 14.8571 19.9641C14.8571 22.7847 17.1437 25.0712 19.9643 25.0712Z" fill="white" stroke="white" stroke-linecap="round" stroke-linejoin="round"/>
</g>
<defs>
<clipPath id="clip0_25_585">
<rect width="26" height="26" fill="white"/>
</clipPath>
</defs>
</svg>
